<mxfile host="65bd71144e">
    <diagram id="8p7SUKV6c0KGEIUoxcyV" name="Page-1">
        <mxGraphModel dx="864" dy="638" grid="1" gridSize="10" guides="1" tooltips="1" connect="1" arrows="1" fold="1" page="1" pageScale="1" pageWidth="827" pageHeight="1169" background="#454545" math="0" shadow="0">
            <root>
                <mxCell id="0"/>
                <mxCell id="1" parent="0"/>
                <mxCell id="19" style="edgeStyle=none;html=1;entryX=0.7;entryY=1;entryDx=0;entryDy=0;entryPerimeter=0;fontColor=#FFFFFF;endArrow=none;endFill=0;rounded=0;exitX=0.58;exitY=0.935;exitDx=0;exitDy=0;exitPerimeter=0;labelBackgroundColor=#000000;" parent="1" target="14" edge="1">
                    <mxGeometry relative="1" as="geometry">
                        <mxPoint x="720.5999999999999" y="356.125" as="sourcePoint"/>
                        <mxPoint x="426.5" y="396" as="targetPoint"/>
                        <Array as="points">
                            <mxPoint x="721" y="400"/>
                        </Array>
                    </mxGeometry>
                </mxCell>
                <mxCell id="13" value="Power source 12V" style="pointerEvents=1;verticalLabelPosition=bottom;shadow=0;dashed=0;align=right;html=1;verticalAlign=top;shape=mxgraph.electrical.signal_sources.dc_source_1;fontColor=#FFFFFF;labelBackgroundColor=#000000;" parent="1" vertex="1">
                    <mxGeometry x="680" y="290" width="70" height="75" as="geometry"/>
                </mxCell>
                <mxCell id="25" style="edgeStyle=none;rounded=0;html=1;exitX=0.7;exitY=0;exitDx=0;exitDy=0;exitPerimeter=0;entryX=0;entryY=0.5;entryDx=0;entryDy=0;entryPerimeter=0;fontColor=#FFFFFF;endArrow=none;endFill=0;labelBackgroundColor=#000000;" parent="1" source="14" target="16" edge="1">
                    <mxGeometry relative="1" as="geometry">
                        <mxPoint x="426.5" y="296" as="sourcePoint"/>
                        <Array as="points">
                            <mxPoint x="427" y="201"/>
                        </Array>
                    </mxGeometry>
                </mxCell>
                <mxCell id="41" style="edgeStyle=none;rounded=0;html=1;exitX=0;exitY=0.72;exitDx=0;exitDy=0;exitPerimeter=0;entryX=0.94;entryY=0.39;entryDx=0;entryDy=0;entryPerimeter=0;fontColor=#FFFFFF;endArrow=none;endFill=0;labelBackgroundColor=#000000;" parent="1" source="14" target="39" edge="1">
                    <mxGeometry relative="1" as="geometry">
                        <Array as="points">
                            <mxPoint x="360" y="307"/>
                        </Array>
                    </mxGeometry>
                </mxCell>
                <mxCell id="14" value="Mosfet SW-M221" style="verticalLabelPosition=bottom;shadow=0;dashed=0;align=center;html=1;verticalAlign=top;shape=mxgraph.electrical.mosfets1.n-channel_mosfet_1;labelBackgroundColor=#000000;fontColor=#FFFFFF;" parent="1" vertex="1">
                    <mxGeometry x="360" y="300" width="95" height="100" as="geometry"/>
                </mxCell>
                <mxCell id="27" value="" style="edgeStyle=none;rounded=0;html=1;exitX=1;exitY=0.395;exitDx=0;exitDy=0;exitPerimeter=0;fontColor=#FFFFFF;endArrow=none;endFill=0;labelBackgroundColor=#000000;" parent="1" source="15" edge="1">
                    <mxGeometry relative="1" as="geometry">
                        <mxPoint x="720" y="201" as="targetPoint"/>
                        <mxPoint x="605" y="473.9100000000001" as="sourcePoint"/>
                        <Array as="points">
                            <mxPoint x="810" y="473"/>
                            <mxPoint x="810" y="201"/>
                        </Array>
                    </mxGeometry>
                </mxCell>
                <mxCell id="28" style="edgeStyle=none;rounded=0;html=1;exitX=0;exitY=0.395;exitDx=0;exitDy=0;exitPerimeter=0;fontColor=#FFFFFF;endArrow=none;endFill=0;labelBackgroundColor=#000000;" parent="1" edge="1">
                    <mxGeometry relative="1" as="geometry">
                        <mxPoint x="721" y="400" as="targetPoint"/>
                        <mxPoint x="536" y="472.9100000000001" as="sourcePoint"/>
                        <Array as="points">
                            <mxPoint x="500" y="473"/>
                            <mxPoint x="500" y="450"/>
                            <mxPoint x="500" y="430"/>
                            <mxPoint x="721" y="430"/>
                        </Array>
                    </mxGeometry>
                </mxCell>
                <mxCell id="43" style="edgeStyle=none;rounded=0;html=1;exitX=0.5;exitY=1;exitDx=0;exitDy=0;exitPerimeter=0;entryX=0.06;entryY=0.73;entryDx=0;entryDy=0;entryPerimeter=0;fontColor=#FFFFFF;endArrow=none;endFill=0;labelBackgroundColor=#000000;" parent="1" source="15" target="39" edge="1">
                    <mxGeometry relative="1" as="geometry">
                        <Array as="points">
                            <mxPoint x="147" y="510"/>
                        </Array>
                    </mxGeometry>
                </mxCell>
                <mxCell id="15" value="Step Down 5V&amp;nbsp;MP1584EN" style="verticalLabelPosition=bottom;shadow=0;dashed=0;align=center;html=1;verticalAlign=top;shape=mxgraph.electrical.abstract.voltage_regulator;labelBackgroundColor=#000000;fontColor=#FFFFFF;" parent="1" vertex="1">
                    <mxGeometry x="535" y="450" width="70" height="58" as="geometry"/>
                </mxCell>
                <mxCell id="24" style="edgeStyle=none;rounded=0;html=1;exitX=1;exitY=0.5;exitDx=0;exitDy=0;exitPerimeter=0;fontColor=#FFFFFF;endArrow=none;endFill=0;entryX=0.58;entryY=0.135;entryDx=0;entryDy=0;entryPerimeter=0;labelBackgroundColor=#000000;" parent="1" source="16" edge="1">
                    <mxGeometry relative="1" as="geometry">
                        <mxPoint x="720.5999999999999" y="296.125" as="targetPoint"/>
                        <Array as="points">
                            <mxPoint x="720" y="201"/>
                        </Array>
                    </mxGeometry>
                </mxCell>
                <mxCell id="16" value="Beacon 12V" style="pointerEvents=1;verticalLabelPosition=bottom;shadow=0;dashed=0;align=center;html=1;verticalAlign=top;shape=mxgraph.electrical.miscellaneous.light_bulb;labelBackgroundColor=#000000;fontColor=#FFFFFF;" parent="1" vertex="1">
                    <mxGeometry x="540" y="176" width="60" height="50" as="geometry"/>
                </mxCell>
                <mxCell id="42" style="edgeStyle=none;rounded=0;html=1;exitX=0.94;exitY=0.62;exitDx=0;exitDy=0;exitPerimeter=0;fontColor=#FFFFFF;endArrow=none;endFill=0;labelBackgroundColor=#000000;" parent="1" source="39" edge="1">
                    <mxGeometry relative="1" as="geometry">
                        <mxPoint x="500" y="430" as="targetPoint"/>
                        <Array as="points">
                            <mxPoint x="253" y="430"/>
                        </Array>
                    </mxGeometry>
                </mxCell>
                <mxCell id="47" style="edgeStyle=none;rounded=0;html=1;fontFamily=Times New Roman;fontSize=20;fontColor=#FFFFFF;endArrow=none;endFill=0;dashed=1;labelBackgroundColor=#000000;" parent="1" edge="1">
                    <mxGeometry relative="1" as="geometry">
                        <mxPoint x="160" y="430" as="targetPoint"/>
                        <mxPoint x="130" y="430" as="sourcePoint"/>
                    </mxGeometry>
                </mxCell>
                <mxCell id="50" style="edgeStyle=none;html=1;exitX=0.06;exitY=0.62;exitDx=0;exitDy=0;exitPerimeter=0;fontFamily=Times New Roman;fontSize=20;fontColor=#FFFFFF;endArrow=none;endFill=0;rounded=0;labelBackgroundColor=#000000;" parent="1" source="39" edge="1">
                    <mxGeometry relative="1" as="geometry">
                        <mxPoint x="130" y="430" as="targetPoint"/>
                        <Array as="points">
                            <mxPoint x="130" y="334"/>
                        </Array>
                    </mxGeometry>
                </mxCell>
                <mxCell id="39" value="NodeMcu" style="pointerEvents=1;shadow=0;dashed=0;html=1;strokeColor=none;fillColor=#4495D1;labelPosition=center;verticalLabelPosition=bottom;verticalAlign=top;align=center;outlineConnect=0;shape=mxgraph.veeam.cpu;labelBackgroundColor=#000000;fontColor=#FFFFFF;points=[[0.06,0.62,0,0,0],[0.06,0.73,0,0,0],[0.94,0.39,0,0,0],[0.94,0.62,0,0,0]];" parent="1" vertex="1">
                    <mxGeometry x="140" y="260" width="120" height="120" as="geometry"/>
                </mxCell>
                <mxCell id="45" value="&lt;font style=&quot;font-size: 20px;&quot;&gt;+&lt;/font&gt;" style="text;html=1;strokeColor=none;fillColor=none;align=center;verticalAlign=middle;whiteSpace=wrap;rounded=0;labelBackgroundColor=#000000;fontColor=#FFFFFF;fontSize=20;fontFamily=Times New Roman;" parent="1" vertex="1">
                    <mxGeometry x="580" y="440" width="60" height="30" as="geometry"/>
                </mxCell>
                <mxCell id="46" value="&lt;font style=&quot;font-size: 20px;&quot;&gt;-&lt;/font&gt;" style="text;html=1;strokeColor=none;fillColor=none;align=center;verticalAlign=middle;whiteSpace=wrap;rounded=0;labelBackgroundColor=#000000;fontColor=#FFFFFF;fontSize=20;fontFamily=Times New Roman;" parent="1" vertex="1">
                    <mxGeometry x="496" y="440" width="60" height="30" as="geometry"/>
                </mxCell>
                <mxCell id="49" value="" style="endArrow=none;html=1;fontFamily=Times New Roman;fontSize=20;fontColor=#FFFFFF;curved=1;labelBackgroundColor=#000000;" parent="1" edge="1">
                    <mxGeometry width="50" height="50" relative="1" as="geometry">
                        <mxPoint x="160" y="430" as="sourcePoint"/>
                        <mxPoint x="270" y="430" as="targetPoint"/>
                    </mxGeometry>
                </mxCell>
            </root>
        </mxGraphModel>
    </diagram>
</mxfile>